<svg class="bolo-tank" xmlns="http://www.w3.org/2000/svg" viewBox="0 0 42 23" role="img" aria-label="Bolo2K tank" shape-rendering="crispEdges"><defs><linearGradient id="bolo-r-outline" x1="0" y1="0" x2="42" y2="0" gradientUnits="userSpaceOnUse"><stop class="tk-s tk-s-outline" offset="0" stop-color="#000000"/><stop class="tk-s tk-s-outline" offset=".5" stop-color="#000000"/><stop class="tk-s tk-s-outline" offset="1" stop-color="#000000"/></linearGradient><linearGradient id="bolo-r-shadow" x1="0" y1="0" x2="42" y2="0" gradientUnits="userSpaceOnUse"><stop class="tk-s tk-s-shadow" offset="0" stop-color="#381538"/><stop class="tk-s tk-s-shadow" offset=".5" stop-color="#261538"/><stop class="tk-s tk-s-shadow" offset="1" stop-color="#002f38"/></linearGradient><linearGradient id="bolo-r-dark" x1="0" y1="0" x2="42" y2="0" gradientUnits="userSpaceOnUse"><stop class="tk-s tk-s-dark" offset="0" stop-color="#682768"/><stop class="tk-s tk-s-dark" offset=".5" stop-color="#472768"/><stop class="tk-s tk-s-dark" offset="1" stop-color="#005868"/></linearGradient><linearGradient id="bolo-r-body" x1="0" y1="0" x2="42" y2="0" gradientUnits="userSpaceOnUse"><stop class="tk-s tk-s-body" offset="0" stop-color="#8d348d"/><stop class="tk-s tk-s-body" offset=".5" stop-color="#61348d"/><stop class="tk-s tk-s-body" offset="1" stop-color="#00778d"/></linearGradient><linearGradient id="bolo-r-lite" x1="0" y1="0" x2="42" y2="0" gradientUnits="userSpaceOnUse"><stop class="tk-s tk-s-lite" offset="0" stop-color="#ba45ba"/><stop class="tk-s tk-s-lite" offset=".5" stop-color="#8045ba"/><stop class="tk-s tk-s-lite" offset="1" stop-color="#009dba"/></linearGradient><linearGradient id="bolo-r-tread" x1="0" y1="0" x2="42" y2="0" gradientUnits="userSpaceOnUse"><stop class="tk-s tk-s-tread" offset="0" stop-color="#b744b7"/><stop class="tk-s tk-s-tread" offset=".5" stop-color="#7d44b7"/><stop class="tk-s tk-s-tread" offset="1" stop-color="#009ab7"/></linearGradient><linearGradient id="bolo-r-metal" x1="0" y1="0" x2="42" y2="0" gradientUnits="userSpaceOnUse"><stop class="tk-s tk-s-metal" offset="0" stop-color="#da51da"/><stop class="tk-s tk-s-metal" offset=".5" stop-color="#9651da"/><stop class="tk-s tk-s-metal" offset="1" stop-color="#00b8da"/></linearGradient><linearGradient id="bolo-r-hi" x1="0" y1="0" x2="42" y2="0" gradientUnits="userSpaceOnUse"><stop class="tk-s tk-s-hi" offset="0" stop-color="#ff5fff"/><stop class="tk-s tk-s-hi" offset=".5" stop-color="#af5fff"/><stop class="tk-s tk-s-hi" offset="1" stop-color="#00d7ff"/></linearGradient></defs><path class="tk-outline" fill="url(#bolo-r-outline)" d="M22 0h9v1h-9zM22 1h1v2h-1zM29 1h2v2h-2zM16 2h6v1h-6zM23 2h6v1h-6zM31 2h2v1h-2zM2 3h6v1h-6zM15 3h1v2h-1zM32 3h2v1h-2zM1 4h1v5h-1zM7 4h8v1h-8zM20 4h1v1h-1zM33 4h1v6h-1zM3 5h1v2h-1zM19 5h1v3h-1zM7 7h10v1h-10zM2 8h5v1h-5zM13 8h1v2h-1zM18 8h1v1h-1zM9 9h4v1h-4zM34 9h5v1h-5zM8 10h2v1h-2zM38 10h2v1h-2zM8 11h1v3h-1zM39 11h1v2h-1zM2 12h6v1h-6zM16 12h5v1h-5zM40 12h1v2h-1zM1 13h2v1h-2zM15 13h1v1h-1zM0 14h2v1h-2zM7 14h1v1h-1zM14 14h1v3h-1zM41 14h1v5h-1zM0 15h1v3h-1zM6 15h1v2h-1zM20 15h2v1h-2zM23 15h1v2h-1zM1 16h5v1h-5zM15 16h6v1h-6zM1 17h1v2h-1zM27 18h1v3h-1zM32 18h1v3h-1zM40 18h1v2h-1zM2 19h1v1h-1zM16 19h1v1h-1zM39 19h1v2h-1zM3 20h1v2h-1zM38 20h1v2h-1zM4 21h1v2h-1zM18 21h1v2h-1zM37 21h1v2h-1zM5 22h13v1h-13zM19 22h18v1h-18z"/><path class="tk-shadow" fill="url(#bolo-r-shadow)" d="M30 8h3v2h-3zM14 9h16v1h-16zM21 12h18v1h-18zM22 14h17v1h-17zM24 15h13v2h-13zM5 17h3v1h-3zM15 17h1v5h-1zM20 17h4v1h-4zM26 17h3v1h-3zM31 17h3v1h-3zM36 17h3v2h-3zM6 18h3v1h-3zM21 18h3v1h-3zM7 19h8v1h-8zM22 19h2v1h-2zM36 19h2v1h-2zM8 20h7v1h-7zM16 20h2v2h-2zM23 20h1v1h-1zM28 20h1v1h-1zM33 20h1v1h-1zM36 20h1v1h-1zM9 21h6v1h-6z"/><path class="tk-dark" fill="url(#bolo-r-dark)" d="M39 14h1v2h-1zM25 18h1v2h-1zM30 18h1v2h-1zM34 18h1v2h-1zM24 20h1v1h-1zM26 20h1v1h-1zM31 20h1v1h-1z"/><path class="tk-body" fill="url(#bolo-r-body)" d="M26 1h3v1h-3zM24 3h8v2h-8zM18 4h2v1h-2zM32 4h1v4h-1zM18 5h1v3h-1zM23 5h4v4h-4zM29 5h3v3h-3zM17 6h1v3h-1zM27 7h2v2h-2zM15 8h2v1h-2zM19 8h3v1h-3zM29 8h1v1h-1zM23 10h15v2h-15zM38 11h1v1h-1zM7 13h1v1h-1zM21 13h19v1h-19zM6 14h1v1h-1zM20 14h2v1h-2zM7 15h7v2h-7zM19 15h1v1h-1zM22 15h1v2h-1zM37 15h2v2h-2zM40 15h1v3h-1zM21 16h1v1h-1zM39 16h1v3h-1zM8 17h7v1h-7zM19 17h1v1h-1zM24 17h2v1h-2zM29 17h2v1h-2zM34 17h2v1h-2zM9 18h6v1h-6zM20 18h1v1h-1zM24 18h1v2h-1zM28 18h2v2h-2zM31 18h1v2h-1zM33 18h1v2h-1zM35 18h1v4h-1zM21 19h1v1h-1zM26 19h1v1h-1zM22 20h1v1h-1zM29 20h1v2h-1zM37 20h1v1h-1zM23 21h6v1h-6zM30 21h5v1h-5z"/><path class="tk-lite" fill="url(#bolo-r-lite)" d="M24 1h2v1h-2zM20 3h1v1h-1zM22 3h2v2h-2zM5 4h2v4h-2zM17 4h1v2h-1zM21 4h1v4h-1zM20 5h1v3h-1zM22 5h1v4h-1zM7 6h10v1h-10zM2 7h3v1h-3zM14 8h1v1h-1zM11 11h12v1h-12zM10 12h6v1h-6zM6 13h1v1h-1zM9 13h6v1h-6zM3 14h3v2h-3zM8 14h6v1h-6zM16 14h4v1h-4zM40 14h1v1h-1zM26 18h1v1h-1zM38 19h1v1h-1zM25 20h1v1h-1zM30 20h1v1h-1zM34 20h1v1h-1zM36 21h1v1h-1z"/><path class="tk-tread" fill="url(#bolo-r-tread)" d="M2 17h3v2h-3zM16 17h3v2h-3zM5 18h1v4h-1zM19 18h1v4h-1zM3 19h2v1h-2zM6 19h1v3h-1zM17 19h2v1h-2zM20 19h1v3h-1zM4 20h1v1h-1zM7 20h1v2h-1zM18 20h1v1h-1zM21 20h1v2h-1zM8 21h1v1h-1zM22 21h1v1h-1z"/><path class="tk-metal" fill="url(#bolo-r-metal)" d="M27 5h2v2h-2z"/><path class="tk-hi" fill="url(#bolo-r-hi)" d="M23 1h1v1h-1zM16 3h4v1h-4zM21 3h1v1h-1zM2 4h3v1h-3zM16 4h1v2h-1zM2 5h1v2h-1zM4 5h1v2h-1zM7 5h9v1h-9zM10 10h13v1h-13zM9 11h2v1h-2zM9 12h1v1h-1zM3 13h3v1h-3zM16 13h5v1h-5zM2 14h1v2h-1zM15 14h1v2h-1zM1 15h1v1h-1zM16 15h3v1h-3z"/></svg>
